# xmcd
#
# Track frame offsets:
#	150
#	10505
#	20470
#	34710
#	46475
#	60686
#	73219
#	86586
#	99305
#	112985
#	124743
#	137484
#
# Disc length: 1986 seconds
#
# Revision: 1
# Processed by: cddbd v1.5.1PL0 Copyright (c) Steve Scherf et al.
# Submitted via: audiograbber 1.83.01
#
DISCID=9507c00c
DTITLE=Wilma Lee and Stoney Cooper and The Clinch Mountain Clan - Early Recording
DTITLE=s
DYEAR=1900
DGENRE=Country
TTITLE0=West Virginia Polka (July 13, 1951)
TTITLE1=All On Account of You (July 13, 1951)
TTITLE2=No One Now (April 9, 1949)
TTITLE3=Can You Forget (Dec. 28, 1953)
TTITLE4=Thirty Pieces of Silver (April 8, 1949)
TTITLE5=On The Banks of the River (April 9, 1949)
TTITLE6=Sunny Side of the Mountain (July 13, 1951)
TTITLE7=I Cried Again (May 21, 1952)
TTITLE8=Wlking My Lord Up Calvary Hill (July 13, 1951)
TTITLE9=You Tried to Ruin My Name (Dec. 17, 1951
TTITLE10=The White Rose (Feb. 20, 1950)
TTITLE11=I'm Taking My Audition (July 13, 1951)
EXTD=
EXTT0=
EXTT1=
EXTT2=
EXTT3=
EXTT4=
EXTT5=
EXTT6=
EXTT7=
EXTT8=
EXTT9=
EXTT10=
EXTT11=
PLAYORDER=
